<?xml version="1.0" encoding="utf-8"?>
<!-- Generator: Adobe Illustrator 25.4.1, SVG Export Plug-In . SVG Version: 6.00 Build 0)  -->
<svg version="1.1" id="Capa_1" xmlns="http://www.w3.org/2000/svg" xmlns:xlink="http://www.w3.org/1999/xlink" x="0px" y="0px"
	 viewBox="0 0 512 512" style="enable-background:new 0 0 512 512;" xml:space="preserve">
<style type="text/css">
	.st0{fill:#999999;stroke:#FFFFFF;stroke-width:8;stroke-miterlimit:10;}
	.st1{fill:#FF5555;stroke:#FFFFFF;stroke-width:8;stroke-miterlimit:10;}
	.st2{fill:#CCCCCC;}
	.st3{stroke:#000000;stroke-miterlimit:10;}
	.st4{fill:#1E1E1E;}
	.st5{fill:none;stroke:#FFFFFF;stroke-width:7;stroke-miterlimit:10;}
	.st6{fill:none;}
	.st7{fill:#CCCCCC;stroke:#FFFFFF;stroke-width:8;stroke-miterlimit:10;}
	.st8{fill:#1E1E1E;stroke:#FFFFFF;stroke-miterlimit:10;}
	.st9{fill:#FFFFFF;stroke:#808080;stroke-miterlimit:10;}
	.st10{fill:#BDCCD4;}
	.st11{font-family:'ArialMT';}
	.st12{font-size:18.146px;}
	.st13{fill:#569CD6;}
	.st14{fill:#D9FF5F;}
	.st15{fill:#FBB03B;}
	.st16{fill:#F2F2F2;}
</style>
<g id="Capa_2_00000160170866393746013740000009430124336225158810_">
</g>
<g>
	<path class="st0" d="M81.8,8h346.5C464,8,493,37.6,493,74.4v235.1c0,36.7-29,66.4-64.8,66.4H81.8C46,375.8,17,346.2,17,309.5V74.4
		C17,37.8,46,8,81.8,8z"/>
	<path class="st1" d="M91.9,54.7h309.8c27.8,0,50.4,25.4,50.4,56.7v171l0,0H57.7l0,0V93.2C57.7,72.1,73,54.9,91.9,54.7L91.9,54.7z"
		/>
	<path class="st2" d="M27.2,277.6H483c2.6,0,4.8,1.9,4.8,4.2l0,0v32.4c0,30.4-27.9,55.2-62.4,55.2l0,0H80.7
		c-32.2,0-58.4-23-58.4-51.5l0,0v-36.1C22.4,279.5,24.6,277.6,27.2,277.6z"/>
	<g>
		<path class="st3" d="M175.9,191.3l44.4-20c3.2-1.4,6.8,0.3,8,3.9c0.1,0.3,0.1,0.5,0.3,0.8l0,0c1.2,4-0.6,8.5-4.2,10.3l-44.2,20
			c-3.2,1.4-6.8-0.3-8-3.9c-0.1-0.3-0.1-0.6-0.3-0.8l0,0C170.7,197.4,172.4,193.1,175.9,191.3z"/>
		<path class="st3" d="M187.3,146.7l38,23.2c3.2,2.3,4.4,6.9,2.8,10.8l0,0c-1.3,3.7-5.1,5.3-8.3,3.9c-0.1,0-0.3-0.2-0.6-0.3
			l-38-23.2c-3.3-2.3-4.5-6.9-2.8-10.8l0,0c1.3-3.7,5.1-5.5,8.4-3.9C187,146.5,187.1,146.5,187.3,146.7z"/>
	</g>
	<g>
		<path class="st3" d="M120.6,159.4L80,187.3c-2.9,1.9-6.8,1-8.6-2.4c-0.1-0.3-0.3-0.5-0.3-0.8l0,0c-1.7-3.9-0.7-8.5,2.5-11
			l40.6-27.9c2.9-1.9,6.8-1,8.6,2.4c0.1,0.3,0.3,0.5,0.3,0.8l0,0C125,152.3,123.8,157,120.6,159.4z"/>
		<path class="st3" d="M116.2,205.3l-40.9-15.9c-3.6-1.6-5.4-6-4.2-10.1l0,0c0.7-3.9,4.2-6.3,7.7-5.5c0.1,0,0.4,0.2,0.6,0.2
			l40.9,15.9c3.6,1.6,5.4,6,4.2,10.1l0,0c-0.7,3.9-4.2,6.3-7.7,5.5C116.5,205.5,116.4,205.5,116.2,205.3z"/>
	</g>
	<path class="st3" d="M172.3,127.2l-31.6,95.2c-1.2,3.5-4.7,5.3-7.9,4l0,0c-3.2-1.3-4.8-5.2-3.6-8.7l31.6-95.2
		c1.2-3.5,4.7-5.3,7.9-4l0,0C171.8,119.9,173.4,123.8,172.3,127.2z"/>
	<path class="st4" d="M256.4,60.3h145.8c24.7,0,44.8,22.2,44.8,49.6l0,0v167.8l0,0H256.4l0,0V60.3L256.4,60.3z"/>
	<line class="st5" x1="17" y1="281.8" x2="492.9" y2="278.6"/>
	<rect x="297" y="145.7" class="st6" width="41.6" height="0.8"/>
	<path class="st7" d="M381.1,491H128.6l0,0c0-27.4,20.1-49.6,44.8-49.6h163C361,441.4,381.1,463.6,381.1,491L381.1,491z"/>
	<polygon class="st0" points="213.5,377.5 197.6,441.1 316,441.1 296.1,377.5 	"/>
	<g>
		<ellipse class="st8" cx="257.5" cy="330.1" rx="34.9" ry="29"/>
		<g>
			<path class="st9" d="M265,316.4l-0.3-0.3l-0.3-0.2l-0.1-0.3h-0.3l-0.3-0.2l-0.3-0.2l-0.3-0.2h-0.1l-0.3-0.2h-0.3l-0.3-0.2h-0.4
				l-0.3-0.2h-0.6h-0.6h-0.4H259h-0.7h-0.7H257h-0.6h-0.6h-0.7h-0.7h-0.7h-0.7h-0.7h-0.9h-0.7H250h-0.7h-0.7h-0.6h-0.6h-0.4h-0.4
				h-0.6l-0.4-0.2l-0.6-0.2l-0.3-0.2l-0.3-0.3l-0.3-0.3l-0.1-0.3l-0.1-0.3v-0.5v-0.5v-0.5l0.1-0.3l0.1-0.3l0.1-0.3l0.3-0.3l0.3-0.2
				l0.4-0.2l0.7-0.2h1.2h1.6h1h1.5h1.5h2.2h1.6h1.2h1.2h1.2h1h0.7l0.6,0.2h0.9l0.7,0.2l1,0.3l0.6,0.3l0.9,0.3l0.9,0.3l0.6,0.5
				l0.6,0.3l0.7,0.6l0.9,0.8l0.4,0.3l0.4,0.6l0.7,1l0.4,0.8l0.4,0.8l0.3,0.8l0.1,0.8l0.1,0.8l0.1,1v0.8v0.8v0.8l-0.3,1.4l-0.4,1.3
				l-0.4,1l-0.6,1l-0.4,0.8l-0.7,0.8l-0.9,0.8l-1.3,1.1l-1.5,0.8l-1.5,0.8l-1.5,0.3l-1,0.3l-1.3,0.2h-1.2H259h-1.3h-1.2h-0.9h-1.2
				h-1.2h-1h-1h-1.2h-1h-1h-0.9h-1h-0.6l-0.3-0.2l-0.4-0.2l-0.4-0.3l-0.3-0.3l-0.3-0.3l-0.1-0.5v-0.6v-0.5l0.1-0.6l0.3-0.5l0.4-0.6
				l0.6-0.3l0.9-0.2h1h2h1.6h1.6h1.9h1.7h1h1.3l1.7,0.2h1.5c0.4-0.2,1-0.5,1.5-0.6c0.7-0.3,1.5-0.8,2.3-1.3c0.6-0.3,1-0.8,1.5-1.1
				c0.3-1.4,0.7-2.9,1-4.3c-0.4-1.1-0.7-2.4-1.2-3.5C266,317.2,265.6,316.7,265,316.4z"/>
			<path class="st9" d="M267.7,320.1"/>
			<polyline class="st9" points="243.7,335.1 245.5,335.9 247.8,335.9 249,335.9 249,338.5 249,342.5 249,348.3 249,349.3 
				248.4,350.1 247.5,350.9 246.3,350.9 245.2,350.9 244.7,350.1 244.3,349.6 244.2,348.8 244.2,346.9 244.2,344 244.2,341.4 
				244.2,339 244.2,337.5 243.7,336.1 			"/>
			<path class="st9" d="M244.2,316.7l1.2,0.5h0.7h1.3h0.9h0.7v1.3v4.3v3.2h-1.9h-1.6l-1.7,0.6l0.4-2.3v-2.7
				C244.2,320.1,244.2,318.5,244.2,316.7z"/>
			<path class="st9" d="M261,335.9l2.6,3.7l2.5,3.4l2.2,3.1l2.5,3.4l1,1l1.2,0.5h1.2l0.9-0.8l0.9-1.1v-1.3l-1.6-1.9l-1.5-1.9
				l-1.5-2.3l-1.2-1.8l-2.5-3.5l-0.6-1.1l-0.4-0.5c-0.1,0.3-0.4,0.6-0.6,1.1c-0.7,0.2-1.3,0.3-2,0.5c-0.6-0.2-1.2-0.3-1.7-0.6"/>
		</g>
	</g>
</g>
<text transform="matrix(0.8902 0 0 1 264.8206 151.7578)" class="st10 st11 st12">1</text>
<text transform="matrix(0.8902 0 0 1 273.1204 151.7578)" class="st11 st12"> </text>
<text transform="matrix(0.8902 0 0 1 276.9202 151.7578)" class="st11 st12">    </text>
<text transform="matrix(0.8902 0 0 1 290.5686 151.7578)" class="st13 st11 st12">&lt;?php</text>
<text transform="matrix(0.8902 0 0 1 264.8206 173.5693)" class="st2 st11 st12">2</text>
<text transform="matrix(0.8902 0 0 1 264.8206 195.3818)" class="st2 st11 st12">2 </text>
<text transform="matrix(0.8902 0 0 1 276.4973 195.3818)" class="st11 st12">     </text>
<text transform="matrix(0.8902 0 0 1 293.6633 195.3818)" class="st14 st11 st12">print</text>
<text transform="matrix(0.8902 0 0 1 326.1633 195.3818)" class="st11 st12">   </text>
<text transform="matrix(0.8902 0 0 1 336.4329 195.3818)" class="st15 st11 st12">“ Hola mundo ”</text>
<text transform="matrix(0.8902 0 0 1 438.5774 195.3818)" class="st16 st11 st12">;</text>
</svg>
