<?xml version="1.0" encoding="utf-8"?>
<!-- Generator: Adobe Illustrator 25.4.1, SVG Export Plug-In . SVG Version: 6.00 Build 0)  -->
<svg version="1.1" id="Capa_1" xmlns="http://www.w3.org/2000/svg" xmlns:xlink="http://www.w3.org/1999/xlink" x="0px" y="0px"
	 viewBox="0 0 350 350" style="enable-background:new 0 0 350 350;" xml:space="preserve">
<style type="text/css">
	.st0{fill:#999999;stroke:#FFFFFF;stroke-width:8;stroke-miterlimit:10;}
	.st1{fill:#FF5555;stroke:#FFFFFF;stroke-width:8;stroke-miterlimit:10;}
	.st2{fill:#CCCCCC;}
	.st3{stroke:#000000;stroke-miterlimit:10;}
	.st4{fill:#1E1E1E;}
	.st5{fill:none;stroke:#FFFFFF;stroke-width:7;stroke-miterlimit:10;}
	.st6{fill:none;}
	.st7{fill:#CCCCCC;stroke:#FFFFFF;stroke-width:8;stroke-miterlimit:10;}
	.st8{fill:#1E1E1E;stroke:#FFFFFF;stroke-miterlimit:10;}
	.st9{fill:#FFFFFF;stroke:#808080;stroke-miterlimit:10;}
</style>
<g>
	<path class="st0" d="M56.2,24.6h238.1c24.6,0,44.5,18.4,44.5,41.2v146c0,22.8-19.9,41.2-44.5,41.2H56.2
		c-24.6,0-44.5-18.4-44.5-41.2v-146C11.7,43.1,31.6,24.6,56.2,24.6z"/>
	<path class="st1" d="M63.2,53.6h212.9c19.1,0,34.6,15.8,34.6,35.2V195l0,0h-271l0,0V77.5C39.7,64.4,50.2,53.7,63.2,53.6L63.2,53.6z
		"/>
	<path class="st2" d="M18.7,192h313.2c1.8,0,3.3,1.2,3.3,2.6l0,0v20.1c0,18.9-19.2,34.3-42.9,34.3l0,0H55.5
		c-22.1,0-40.1-14.3-40.1-32l0,0v-22.4C15.4,193.2,16.9,192,18.7,192z"/>
	<g>
		<path class="st3" d="M120.9,138.4l30.5-12.4c2.2-0.9,4.7,0.2,5.5,2.4c0.1,0.2,0.1,0.3,0.2,0.5l0,0c0.8,2.5-0.4,5.3-2.9,6.4
			l-30.4,12.4c-2.2,0.9-4.7-0.2-5.5-2.4c-0.1-0.2-0.1-0.4-0.2-0.5l0,0C117.3,142.2,118.5,139.5,120.9,138.4z"/>
		<path class="st3" d="M128.7,110.7l26.1,14.4c2.2,1.4,3,4.3,1.9,6.7l0,0c-0.9,2.3-3.5,3.3-5.7,2.4c-0.1,0-0.2-0.1-0.4-0.2
			l-26.1-14.4c-2.3-1.4-3.1-4.3-1.9-6.7l0,0c0.9-2.3,3.5-3.4,5.8-2.4C128.5,110.6,128.6,110.6,128.7,110.7z"/>
	</g>
	<g>
		<path class="st3" d="M82.9,118.6L55,135.9c-2,1.2-4.7,0.6-5.9-1.5c-0.1-0.2-0.2-0.3-0.2-0.5l0,0c-1.2-2.4-0.5-5.3,1.7-6.8
			l27.9-17.3c2-1.2,4.7-0.6,5.9,1.5c0.1,0.2,0.2,0.3,0.2,0.5l0,0C85.9,114.2,85.1,117.1,82.9,118.6z"/>
		<path class="st3" d="M79.9,147.1l-28.1-9.9c-2.5-1-3.7-3.7-2.9-6.3l0,0c0.5-2.4,2.9-3.9,5.3-3.4c0.1,0,0.3,0.1,0.4,0.1l28.1,9.9
			c2.5,1,3.7,3.7,2.9,6.3l0,0c-0.5,2.4-2.9,3.9-5.3,3.4C80.1,147.2,80,147.2,79.9,147.1z"/>
	</g>
	<path class="st3" d="M118.4,98.6l-21.7,59.1c-0.8,2.2-3.2,3.3-5.4,2.5l0,0c-2.2-0.8-3.3-3.2-2.5-5.4l21.7-59.1
		c0.8-2.2,3.2-3.3,5.4-2.5l0,0C118.1,94.1,119.2,96.5,118.4,98.6z"/>
	<path class="st4" d="M176.2,57.1h100.2c17,0,30.8,13.8,30.8,30.8l0,0v104.2l0,0h-131l0,0V57.1L176.2,57.1z"/>
	<line class="st5" x1="11.7" y1="194.6" x2="338.7" y2="192.6"/>
	<rect x="204.1" y="110.1" class="st6" width="28.6" height="0.5"/>
	<path class="st7" d="M261.9,324.5H88.4l0,0c0-17,13.8-30.8,30.8-30.8h112C248.1,293.7,261.9,307.5,261.9,324.5L261.9,324.5z"/>
	<polygon class="st0" points="146.7,254 135.8,293.5 217.2,293.5 203.5,254 	"/>
	<g>
		<ellipse class="st8" cx="177" cy="224.6" rx="24" ry="18"/>
		<g>
			<path class="st9" d="M182.1,216.1l-0.2-0.2l-0.2-0.1l-0.1-0.2h-0.2l-0.2-0.1l-0.2-0.1l-0.2-0.1h-0.1l-0.2-0.1h-0.2l-0.2-0.1h-0.3
				l-0.2-0.1h-0.4h-0.4h-0.3H178h-0.5H177h-0.4h-0.4h-0.4h-0.5h-0.5h-0.5h-0.5h-0.5h-0.6h-0.5h-0.4h-0.5h-0.5h-0.4H170h-0.3h-0.3
				H169l-0.3-0.1l-0.4-0.1l-0.2-0.1l-0.2-0.2l-0.2-0.2l-0.1-0.2l-0.1-0.2v-0.3v-0.3V213l0.1-0.2l0.1-0.2l0.1-0.2l0.2-0.2l0.2-0.1
				l0.3-0.1l0.5-0.1h0.8h1.1h0.7h1h1h1.5h1.1h0.8h0.8h0.8h0.7h0.5l0.4,0.1h0.6l0.5,0.1l0.7,0.2l0.4,0.2l0.6,0.2l0.6,0.2l0.4,0.3
				l0.4,0.2l0.5,0.4l0.6,0.5l0.3,0.2l0.3,0.4l0.5,0.6l0.3,0.5l0.3,0.5l0.2,0.5l0.1,0.5l0.1,0.5l0.1,0.6v0.5v0.5v0.5l-0.2,0.9
				l-0.3,0.8l-0.3,0.6l-0.4,0.6l-0.3,0.5l-0.5,0.5l-0.6,0.5l-0.9,0.7l-1,0.5l-1,0.5l-1,0.2l-0.7,0.2l-0.9,0.1h-0.8H178h-0.9h-0.8
				h-0.6h-0.8h-0.8h-0.7h-0.7h-0.8h-0.7h-0.7h-0.6h-0.7h-0.4l-0.2-0.1l-0.3-0.1l-0.3-0.2l-0.2-0.2l-0.2-0.2l-0.1-0.3v-0.4v-0.3
				l0.1-0.4l0.2-0.3l0.3-0.4l0.4-0.2l0.6-0.1h0.7h1.4h1.1h1.1h1.3h1.2h0.7h0.9l1.2,0.1h1c0.3-0.1,0.7-0.3,1-0.4
				c0.5-0.2,1-0.5,1.6-0.8c0.4-0.2,0.7-0.5,1-0.7c0.2-0.9,0.5-1.8,0.7-2.7c-0.3-0.7-0.5-1.5-0.8-2.2
				C182.8,216.6,182.5,216.3,182.1,216.1z"/>
			<path class="st9" d="M184,218.4"/>
			<polyline class="st9" points="167.5,227.7 168.7,228.2 170.3,228.2 171.1,228.2 171.1,229.8 171.1,232.3 171.1,235.9 
				171.1,236.5 170.7,237 170.1,237.5 169.3,237.5 168.5,237.5 168.2,237 167.9,236.7 167.8,236.2 167.8,235 167.8,233.2 
				167.8,231.6 167.8,230.1 167.8,229.2 167.5,228.3 			"/>
			<path class="st9" d="M167.8,216.3l0.8,0.3h0.5h0.9h0.6h0.5v0.8v2.7v2h-1.3h-1.1l-1.2,0.4l0.3-1.4v-1.7
				C167.8,218.4,167.8,217.4,167.8,216.3z"/>
			<path class="st9" d="M179.4,228.2l1.8,2.3l1.7,2.1l1.5,1.9l1.7,2.1l0.7,0.6l0.8,0.3h0.8l0.6-0.5l0.6-0.7v-0.8l-1.1-1.2l-1-1.2
				l-1-1.4l-0.8-1.1l-1.7-2.2l-0.4-0.7l-0.3-0.3c-0.1,0.2-0.3,0.4-0.4,0.7c-0.5,0.1-0.9,0.2-1.4,0.3c-0.4-0.1-0.8-0.2-1.2-0.4"/>
		</g>
	</g>
</g>
</svg>
