<?xml version="1.0" encoding="utf-8"?>
<!-- Generator: Adobe Illustrator 25.4.1, SVG Export Plug-In . SVG Version: 6.00 Build 0)  -->
<svg version="1.1" id="Capa_1" xmlns="http://www.w3.org/2000/svg" xmlns:xlink="http://www.w3.org/1999/xlink" x="0px" y="0px"
	 viewBox="0 0 1600 600" style="enable-background:new 0 0 1600 600;" xml:space="preserve">
<style type="text/css">
	.st0{clip-path:url(#SVGID_00000156585555884719460180000008051723623016784789_);}
	.st1{opacity:0.5;}
	.st2{fill:#E7E7E7;}
	.st3{fill:#1E1E1E;}
</style>
<g>
	<defs>
		<rect id="SVGID_1_" x="0" y="-1056" width="1600" height="1656.2"/>
	</defs>
	<clipPath id="SVGID_00000067225572159085622080000002387234788742050204_">
		<use xlink:href="#SVGID_1_"  style="overflow:visible;"/>
	</clipPath>
	<g style="clip-path:url(#SVGID_00000067225572159085622080000002387234788742050204_);">
		<g class="st1">
			<image style="overflow:visible;" width="1832" height="956" xlink:href="3D22F1E5.png"  transform="matrix(1 0 0 1 -72 -580)">
			</image>
		</g>
		<path class="st2" d="M1225.4-357c-248,0-248-136.3-496-136.3c-248,0-248,136.3-496,136.3c-124.7,0-186.7-34.5-249.1-68.7v715.3
			h1719.7V-493C1473.3-486.8,1467.4-357,1225.4-357z"/>
		<g class="st1">
			<image style="overflow:visible;" width="1832" height="957" xlink:href="3D22F1EB.png"  transform="matrix(1 0 0 1 -72 -427)">
			</image>
		</g>
		<path class="st2" d="M1472.8-340c-248,0-248,136.3-496.1,136.3c-248,0-248-136.3-496-136.3c-248,0-248,136.3-496,136.3
			c-0.2,0-0.3,0-0.5,0v646.5h1719.7v-723.9C1647.1-311.8,1585.6-340,1472.8-340z"/>
		<g class="st1">
			<image style="overflow:visible;" width="1832" height="957" xlink:href="3D22F1EC.png"  transform="matrix(1 0 0 1 -72 -238)">
			</image>
		</g>
		<path class="st2" d="M1234.4-14.6c-248,0-248-136.3-496-136.3c-248,0-248,136.3-496,136.3c-130.7,0-192.6-37.8-258.1-73.7v720.2
			h1719.7v-782.3C1482.1-141,1473.2-14.6,1234.4-14.6z"/>
		<g class="st1">
			<image style="overflow:visible;" width="1832" height="956" xlink:href="3D22F1EF.png"  transform="matrix(1 0 0 1 -72 -84)">
			</image>
		</g>
		<path class="st3" d="M1544.7,2.3c-248,0-248,136.3-496.1,136.3c-248,0-248-136.3-496-136.3c-248,0-248,136.3-496,136.3
			c-26.8,0-50.7-1.6-72.4-4.5v651h1719.7V27.8C1662.8,12.7,1613.2,2.3,1544.7,2.3z"/>
	</g>
</g>
</svg>
