<?xml version="1.0" encoding="utf-8"?>
<!-- Generator: Adobe Illustrator 25.4.1, SVG Export Plug-In . SVG Version: 6.00 Build 0)  -->
<svg version="1.1" id="Layer_1" xmlns="http://www.w3.org/2000/svg" xmlns:xlink="http://www.w3.org/1999/xlink" x="0px" y="0px"
	 viewBox="0 0 432 288" style="enable-background:new 0 0 432 288;" xml:space="preserve">
<style type="text/css">
	.st0{fill:#E7E7E7;}
	.st1{clip-path:url(#SVGID_00000003064754806649977320000013667129346122732457_);}
	.st2{opacity:0.5;}
	.st3{fill:#1E1E1E;}
	.st4{display:none;}
	.st5{display:inline;}
	.st6{fill:#FFFFFF;}
</style>
<rect class="st0" width="432" height="288"/>
<g>
	<defs>
		<rect id="SVGID_1_" width="432" height="288"/>
	</defs>
	<clipPath id="SVGID_00000030444469055094429490000005430223847507474074_">
		<use xlink:href="#SVGID_1_"  style="overflow:visible;"/>
	</clipPath>
</g>
<g>
	<defs>
		<rect id="SVGID_00000081634796904128531160000014645306213857614248_" width="432" height="288"/>
	</defs>
	<clipPath id="SVGID_00000031901980526821590570000009657868954921438894_">
		<use xlink:href="#SVGID_00000081634796904128531160000014645306213857614248_"  style="overflow:visible;"/>
	</clipPath>
	<g style="clip-path:url(#SVGID_00000031901980526821590570000009657868954921438894_);">
		<g class="st2">
			
				<image style="overflow:visible;" width="2061" height="693" xlink:href="72192666.png"  transform="matrix(0.24 0 0 0.24 -19.4794 82.8301)">
			</image>
		</g>
		<path class="st0" d="M330.8,121.6c-67,0-67-23.7-133.9-23.7c-67,0-67,23.7-133.9,23.7c-33.7,0-50.4-6-67.3-12V234h464.3V97.9
			C397.8,99,396.2,121.6,330.8,121.6z"/>
		<g class="st2">
			
				<image style="overflow:visible;" width="2061" height="693" xlink:href="7219266A.png"  transform="matrix(0.24 0 0 0.24 -19.4794 109.4701)">
			</image>
		</g>
		<path class="st0" d="M397.6,124.5c-67,0-67,23.7-133.9,23.7c-67,0-67-23.7-133.9-23.7c-67,0-67,23.7-133.9,23.7c0,0-0.1,0-0.1,0
			v112.4h464.3V134.8C444.7,129.4,428.1,124.5,397.6,124.5z"/>
		<g class="st2">
			
				<image style="overflow:visible;" width="2061" height="693" xlink:href="7219266D.png"  transform="matrix(0.24 0 0 0.24 -19.4794 142.3501)">
			</image>
		</g>
		<path class="st0" d="M333.3,181.1c-67,0-67-23.7-133.9-23.7c-67,0-67,23.7-133.9,23.7c-35.3,0-52-6.6-69.7-12.8v125.2h464.3v-136
			C400.2,159.1,397.8,181.1,333.3,181.1z"/>
		<g class="st2">
			
				<image style="overflow:visible;" width="2061" height="693" xlink:href="7219266E.png"  transform="matrix(0.24 0 0 0.24 -19.4794 168.9901)">
			</image>
		</g>
		<path class="st3" d="M417.1,184c-67,0-67,23.7-133.9,23.7c-67,0-67-23.7-133.9-23.7c-67,0-67,23.7-133.9,23.7
			c-7.2,0-13.7-0.3-19.5-0.8v113.2h464.3V188.5C449,185.8,435.6,184,417.1,184z"/>
	</g>
</g>
<g>
	<defs>
		<rect id="SVGID_00000073707844685985600450000005384248976812837249_" width="432" height="288"/>
	</defs>
	<clipPath id="SVGID_00000115475153077685994150000007563751110454729403_">
		<use xlink:href="#SVGID_00000073707844685985600450000005384248976812837249_"  style="overflow:visible;"/>
	</clipPath>
</g>
<g class="st4">
	<g class="st5">
		<path class="st6" d="M170.3,246.6c-0.2,1.1-0.3,2-0.3,2.8c0,0.8,0.1,1.4,0.4,1.8c-1.2,0-2.1-0.1-2.6-0.4c-1.1-0.5-1.6-1.5-1.6-2.9
			c0-2.1,0.9-5.2,2.7-9.1c0.6-1.2,1.2-2.4,1.9-3.6c-1,0.1-1.8,0.2-2.4,0.4c-0.6,0.2-1,0.6-1.3,1.2c0.1,0,0.2,0.1,0.3,0.3
			c0.1,0.2,0.1,0.5,0.1,0.8s-0.2,0.6-0.5,0.8c-0.3,0.2-0.7,0.3-1.1,0.3c-0.7,0-1.2-0.2-1.6-0.5c-0.4-0.3-0.5-0.8-0.5-1.3
			c0-1.1,0.6-2,1.8-2.7c1.2-0.7,2.7-1.1,4.5-1.1c0.4,0,1,0,1.6,0.1c1.7-2.6,3.5-4.8,5.4-6.6c1.9-1.7,3.7-2.6,5.5-2.6
			c1.1,0,1.9,0.1,2.5,0.4l-4.9,22.9h-4.5l2.4-11.3c-1.4-0.6-2.8-1-4.2-1.1C172.1,239.4,170.9,243.2,170.3,246.6z M174.7,233.9
			c1.4,0.3,2.7,0.6,3.8,1.1l1.8-8.5C178.5,227.5,176.6,230,174.7,233.9z"/>
		<path class="st6" d="M198.9,243.1c0,1.5,0.6,2.3,1.8,2.3c0.7,0,1.2-0.2,1.5-0.6c0.3-0.4,0.5-1,0.5-1.9c0-0.9-0.1-1.7-0.2-2.5
			c-0.2-2-0.4-4.1-0.5-6.4c-1.4,2.2-3.1,3.6-4.9,4.2c-0.2,2.1-0.8,4-1.7,5.7c-1,1.6-2.2,2.8-3.9,3.4c-0.9,0.3-1.9,0.5-3.2,0.5
			c-1.3,0-2.3-0.3-3-1c-0.7-0.7-1.1-1.7-1.1-2.9c0-0.6,0.1-1.1,0.2-1.8l3.3-15.6l4.6-0.6l-1.5,7c0.9-0.6,1.8-0.9,2.6-0.9
			c2.3,0,3.5,1.6,3.7,4.7c1.4-0.3,3-1.9,4.8-4.9l4.6-0.6c0.1,1.9,0.2,3.6,0.2,4.9l0.4,4.9c0,0.5,0.1,1,0.1,1.4c0,0.5,0,0.9-0.1,1.2
			c0.7-0.4,1.4-0.9,2.2-1.5h1.3c-1.1,1.3-2.5,2.5-4.3,3.6c-1,1.4-2.5,2.1-4.6,2.1c-1.7,0-2.9-0.5-3.6-1.4c-0.5-0.7-0.8-1.5-0.8-2.5
			c0-1,0.2-1.8,0.7-2.4c0.5-0.6,1-0.8,1.5-0.8c1.1,0,1.6,0.4,1.6,1.3c0,0.4-0.1,0.7-0.4,1c-0.3,0.3-0.6,0.4-1.1,0.4
			S199,243.3,198.9,243.1z M193.8,235.9c-0.3-1.1-0.8-1.7-1.5-1.7c-0.5,0-0.9,0.1-1.2,0.2c-0.3,0.1-0.5,0.3-0.6,0.4l-1.7,7.9
			c-0.1,0.3-0.1,0.5-0.1,0.7c0,1,0.5,1.4,1.6,1.4c0.9,0,1.8-0.9,2.6-2.6c0.5-1.2,0.8-2.4,1-3.9c-0.3-0.2-0.5-0.6-0.5-1.2
			C193.4,236.6,193.5,236.2,193.8,235.9z"/>
		<path class="st6" d="M218.9,242.1c-1.3,3.8-3.6,5.8-6.7,5.8c-0.8,0-1.6-0.3-2.2-0.9c-0.6-0.6-1-1.5-1-2.8c0-0.6,0.1-1.3,0.2-2
			l1.9-8.7h-1l0.3-1.2h1l0.9-4.3l4.6-0.6l-1.1,4.9h1.9l-0.2,1.2h-1.9l-2,9.3c-0.1,0.4-0.1,0.7-0.1,1.1c0,0.7,0.4,1,1.3,1
			c0.6,0,1.2-0.3,1.7-0.8c0.5-0.5,0.9-1.2,1.1-2H218.9z"/>
		<path class="st6" d="M216.4,247.7l3.3-15.6h4.5l-0.4,1.9c0.5-0.5,1.1-0.9,1.7-1.3c0.6-0.4,1.3-0.6,2-0.6c0.7,0,1.3,0.2,1.6,0.7
			c0.4,0.5,0.5,0.9,0.5,1.4c0,0.7-0.2,1.4-0.6,1.8c-0.4,0.5-0.9,0.7-1.5,0.7c-0.6,0-0.9-0.1-1.1-0.4c-0.2-0.3-0.3-0.5-0.3-0.8
			c0-0.3-0.1-0.5-0.2-0.6c-0.1-0.2-0.2-0.2-0.4-0.2c-0.4,0-0.8,0.1-1.1,0.3c-0.3,0.2-0.7,0.5-1.1,0.9l-2.5,11.8H216.4z"/>
		<path class="st6" d="M246.9,242.1c-1.3,3.8-3.4,5.8-6.2,5.8c-1.8,0-2.9-1-3.1-2.9c-1.4,1.9-2.9,2.9-4.7,2.9s-3-0.9-3.7-2.7
			c-0.2-0.6-0.3-1.4-0.3-2.2c0-0.8,0.1-1.6,0.2-2.4c0.1-0.8,0.4-1.6,0.7-2.4c0.6-1.8,1.6-3.3,2.8-4.4c1.2-1.2,2.7-1.7,4.4-1.7
			c0.9,0,1.5,0.1,1.9,0.4c0.4,0.3,0.6,0.7,0.6,1.1v0.2l0.3-1.7h4.5l-2.2,10.6c-0.1,0.4-0.1,0.7-0.1,1c0,0.9,0.4,1.3,1.3,1.3
			c1.1,0,1.9-1,2.5-2.9H246.9z M239.1,235.1c0-0.2-0.1-0.4-0.3-0.7c-0.2-0.3-0.6-0.4-1.1-0.4c-0.6,0-1.1,0.3-1.7,0.9
			c-1.3,1.5-2.1,3.6-2.5,6.4c-0.1,0.4-0.1,0.9-0.1,1.4c0,0.9,0.2,1.6,0.6,1.9c0.2,0.2,0.5,0.3,0.8,0.3c0.6,0,1.2-0.2,1.7-0.7
			c0.5-0.5,0.9-1.2,1-2L239.1,235.1z"/>
		<path class="st6" d="M253.3,231.8c2.5,0,3.7,0.9,3.7,2.8c0,0.8-0.2,1.4-0.5,1.7c-0.3,0.4-0.7,0.6-1.1,0.6c-0.4,0-0.8-0.1-1.2-0.4
			c0.3-0.7,0.4-1.3,0.4-1.8c0-0.9-0.3-1.3-0.9-1.3c-0.6,0-1.2,0.5-1.9,1.6c-0.9,1.5-1.6,3.4-1.9,5.7c-0.1,0.7-0.2,1.4-0.2,2.2
			c0,1.5,0.7,2.2,2.1,2.2c1.2,0,2.2-0.3,3-0.8c0.8-0.5,1.7-1.3,2.6-2.3h1.1c-2.3,3.8-5.2,5.8-8.6,5.8c-1.5,0-2.7-0.4-3.5-1.1
			c-0.9-0.8-1.3-2-1.3-3.8c0-2.4,0.6-4.7,1.8-6.9c0.9-1.7,2.2-2.9,3.8-3.6C251.6,232,252.4,231.8,253.3,231.8z"/>
		<path class="st6" d="M259.5,233.4h-1l0.3-1.2h1l0.9-4.3l4.6-0.6l-1.1,4.9h1.9l-0.2,1.2H264l-2,9.3c-0.1,0.4-0.2,0.8-0.2,1.1
			s0.1,0.6,0.2,0.8c0.1,0.2,0.4,0.3,0.8,0.3c0.4,0,0.7,0,0.9-0.1c-0.6,1.7-1.4,2.7-2.5,2.9c-0.3,0.1-0.6,0.1-0.8,0.1
			c-1.1,0-1.9-0.3-2.4-1c-0.5-0.7-0.7-1.4-0.7-2.2c0-0.8,0.1-1.4,0.2-2L259.5,233.4z"/>
	</g>
	<g class="st5">
		<path class="st6" d="M180.6,253.5l0.7-2.4h1l0.7,2.4l0.8-2.4h1l-1.4,4.1h-0.7l-0.9-2.9l-0.9,2.9h-0.7l-1.4-4.1h1L180.6,253.5z"/>
		<path class="st6" d="M189,255.2l-0.4-0.9h-1.7l-0.4,0.9h-1l1.8-4.1h0.9l1.8,4.1H189z M187.8,252.3l-0.5,1.2h1L187.8,252.3z"/>
		<path class="st6" d="M192.7,253.7l1.1-2.6h1l-1.7,4.1h-0.8l-1.7-4.1h1L192.7,253.7z"/>
		<path class="st6" d="M199.2,251.1v0.8h-2.1v0.9h1.8v0.8h-1.8v0.9h2.1v0.8h-3v-4.1H199.2z"/>
		<path class="st6" d="M205.3,255.2h-1.8v-4.1h1.6c0.3,0,0.5,0,0.7,0.1c0.2,0.1,0.4,0.2,0.5,0.3c0.2,0.2,0.3,0.5,0.3,0.7
			c0,0.3-0.1,0.6-0.3,0.7c-0.1,0.1-0.1,0.1-0.1,0.1c0,0-0.1,0-0.1,0.1c0.3,0.1,0.5,0.2,0.6,0.3c0.2,0.2,0.2,0.4,0.2,0.7
			c0,0.3-0.1,0.5-0.3,0.8C206.3,255.1,205.9,255.2,205.3,255.2z M204.4,252.8h0.4c0.3,0,0.4,0,0.6-0.1c0.1-0.1,0.2-0.2,0.2-0.4
			s-0.1-0.3-0.2-0.4c-0.1-0.1-0.3-0.1-0.6-0.1h-0.4V252.8z M204.4,254.4h0.6c0.3,0,0.5,0,0.6-0.1c0.1-0.1,0.2-0.2,0.2-0.4
			c0-0.2-0.1-0.3-0.2-0.4c-0.1-0.1-0.4-0.1-0.7-0.1h-0.5V254.4z"/>
		<path class="st6" d="M211.4,255.2l-0.4-0.9h-1.7l-0.4,0.9h-1l1.8-4.1h0.9l1.8,4.1H211.4z M210.2,252.3l-0.5,1.2h1L210.2,252.3z"/>
		<path class="st6" d="M215.7,254.4c0.5,0,0.8-0.2,1.1-0.5l0.6,0.6c-0.5,0.5-1,0.8-1.7,0.8c-0.6,0-1.2-0.2-1.6-0.6
			c-0.4-0.4-0.6-0.9-0.6-1.5s0.2-1.1,0.6-1.5c0.4-0.4,0.9-0.6,1.5-0.6c0.7,0,1.2,0.3,1.7,0.8l-0.6,0.6c-0.3-0.4-0.7-0.5-1.1-0.5
			c-0.3,0-0.6,0.1-0.9,0.3c-0.2,0.2-0.4,0.5-0.4,0.9c0,0.4,0.1,0.7,0.3,0.9C215.1,254.3,215.4,254.4,215.7,254.4z"/>
		<path class="st6" d="M219.1,251.1h0.9v1.7l1.6-1.7h1.1l-1.6,1.8c0.1,0.2,0.4,0.6,0.8,1.1c0.4,0.5,0.7,0.9,0.9,1.2h-1.1l-1.2-1.6
			L220,254v1.2h-0.9V251.1z"/>
		<path class="st6" d="M226.9,253.1h0.9v1.5c-0.4,0.5-1,0.7-1.7,0.7c-0.6,0-1.1-0.2-1.5-0.6c-0.4-0.4-0.6-0.9-0.6-1.5
			s0.2-1.1,0.6-1.5c0.4-0.4,0.9-0.6,1.5-0.6c0.6,0,1.1,0.2,1.5,0.6l-0.5,0.7c-0.2-0.2-0.4-0.3-0.5-0.3c-0.2-0.1-0.3-0.1-0.5-0.1
			c-0.4,0-0.6,0.1-0.9,0.4c-0.2,0.2-0.4,0.6-0.4,0.9c0,0.4,0.1,0.7,0.3,0.9c0.2,0.2,0.5,0.4,0.8,0.4c0.3,0,0.6-0.1,0.8-0.2V253.1z"
			/>
		<path class="st6" d="M232.9,252.5c0,0.7-0.3,1.1-0.8,1.3l1,1.5h-1.1l-0.9-1.3h-0.6v1.3h-0.9v-4.1h1.6c0.6,0,1.1,0.1,1.4,0.3
			C232.8,251.6,232.9,252,232.9,252.5z M231.8,252.9c0.1-0.1,0.2-0.3,0.2-0.5c0-0.2-0.1-0.4-0.2-0.5c-0.1-0.1-0.3-0.1-0.6-0.1h-0.7
			v1.2h0.7C231.5,253.1,231.7,253,231.8,252.9z"/>
		<path class="st6" d="M238.3,254.6c-0.4,0.4-0.9,0.6-1.5,0.6c-0.6,0-1.1-0.2-1.5-0.6c-0.4-0.4-0.6-0.9-0.6-1.5
			c0-0.6,0.2-1.1,0.6-1.5c0.4-0.4,0.9-0.6,1.5-0.6c0.6,0,1.1,0.2,1.5,0.6c0.4,0.4,0.6,0.9,0.6,1.5
			C238.9,253.7,238.7,254.2,238.3,254.6z M237.9,253.1c0-0.4-0.1-0.7-0.4-0.9c-0.2-0.3-0.5-0.4-0.9-0.4c-0.3,0-0.6,0.1-0.9,0.4
			c-0.2,0.3-0.4,0.6-0.4,0.9c0,0.4,0.1,0.7,0.4,0.9c0.2,0.3,0.5,0.4,0.9,0.4c0.3,0,0.6-0.1,0.9-0.4
			C237.8,253.8,237.9,253.5,237.9,253.1z"/>
		<path class="st6" d="M241.7,254.1c0.2,0.2,0.4,0.3,0.6,0.3c0.3,0,0.5-0.1,0.6-0.3c0.2-0.2,0.2-0.5,0.2-0.8v-2.3h0.9v2.3
			c0,0.6-0.2,1.1-0.5,1.4c-0.3,0.3-0.8,0.5-1.3,0.5c-0.5,0-0.9-0.2-1.3-0.5c-0.3-0.3-0.5-0.8-0.5-1.4v-2.3h0.9v2.3
			C241.5,253.7,241.5,254,241.7,254.1z"/>
		<path class="st6" d="M248.9,251.1h0.9v4.1h-0.9l-2-2.6v2.6H246v-4.1h0.9l2,2.7V251.1z"/>
		<path class="st6" d="M254.9,251.6c0.4,0.4,0.6,0.9,0.6,1.5c0,0.6-0.2,1.1-0.6,1.5c-0.4,0.4-1,0.6-1.8,0.6h-1.4v-4.1h1.5
			C253.9,251.1,254.5,251.3,254.9,251.6z M254.2,254.1c0.2-0.2,0.3-0.5,0.3-0.9c0-0.4-0.1-0.7-0.3-0.9c-0.2-0.2-0.6-0.3-1-0.3h-0.5
			v2.5h0.6C253.7,254.4,254,254.3,254.2,254.1z"/>
	</g>
</g>
</svg>
